:version 1.10
:name ASF
:units
  mass 1
  length 1
  angle deg
:documentation
  ASF file generated by Kaydara
:root
  axis xyz
  order  tx ty tz rx ry rz
  position 0 0 0
  orientation 0 0 0
:bonedata
  begin
    id 1
    name RightUpLegDummy
    direction -1 2.30186e-007 8.31532e-007
    length 4.46685
    axis 0 0 0 xyz
  end
  begin
    id 2
    name RightUpLeg
    direction -2.30187e-007 -1 1.24343e-010
    length 16.4045
    axis -3.49089 -0.000906625 0.000286804 xyz
    dof rx ry rz
  end
  begin
    id 3
    name RightLeg
    direction -2.30181e-007 -1 -4.17157e-009
    length 17.5097
    axis 3.68512 0.0193738 -0.131023 xyz
    dof rx ry rz
  end
  begin
    id 4
    name RightFoot
    direction 8.31421e-007 -4.51202e-011 1
    length 6.49508
    axis 4.81691e-005 -0.120479 -0.188788 xyz
    dof rx ry rz
  end
  begin
    id 5
    name RightToes
    direction 0.00124746 -0.014064 0.9999
    length 3.85082
    axis 0.000481921 0.542163 -0.142578 xyz
    dof rx ry rz
  end
  begin
    id 6
    name SpineDummy
    direction 0.0717043 0.9409 -0.331007
    length 10.0032
    axis 0 0 0 xyz
  end
  begin
    id 7
    name Spine
    direction 2.30186e-007 1 4.58806e-011
    length 9.84055
    axis -0.001389 0.000121418 2.40972e-006 xyz
    dof rx ry rz
  end
  begin
    id 8
    name Spine1
    direction 0 0 0
    length 0
    axis -0.001389 0.000121451 1.30017e-006 xyz
    dof rx ry rz
  end
  begin
    id 9
    name HEadDummy
    direction -0.00347485 0.950688 -0.310128
    length 8.00997
    axis -0.001389 0.000121451 1.30017e-006 xyz
  end
  begin
    id 10
    name HEad
    direction -0.0222688 0.980941 0.193023
    length 5.12695
    axis -0.001389 0.000121451 1.30017e-006 xyz
    dof rx ry rz
  end
  begin
    id 11
    name LeftShoulder1Dummy
    direction 0.988871 0.146793 -0.0242004
    length 3.5792
    axis -0.001389 0.000121451 1.30017e-006 xyz
  end
  begin
    id 12
    name LeftShoulder1
    direction 0.993832 0.108932 0.020779
    length 4.16823
    axis -0.001389 0.000121451 1.30017e-006 xyz
    dof rx ry rz
  end
  begin
    id 13
    name LeftArm
    direction 1 3.44807e-006 -8.31404e-007
    length 9.91437
    axis -23.1894 0.134784 0.967509 xyz
    dof rx ry rz
  end
  begin
    id 14
    name LeftForeArm
    direction 1 3.44842e-006 -8.31581e-007
    length 9.08575
    axis -9.91835 -0.06569 -0.177793 xyz
    dof rx ry rz
  end
  begin
    id 15
    name LeftHand
    direction 0.992938 -0.0411636 0.11126
    length 5.32135
    axis -0.00960232 -0.00340091 0.185173 xyz
    dof rx ry rz
  end
  begin
    id 16
    name RightShoulderDummy
    direction -0.988871 0.146793 -0.0241962
    length 3.5792
    axis -0.001389 0.000121451 1.30017e-006 xyz
  end
  begin
    id 17
    name RightShoulder
    direction -0.993832 0.108933 0.0207785
    length 4.16823
    axis 0.215806 0.000203643 -0.0068026 xyz
    dof rx ry rz
  end
  begin
    id 18
    name RightArm
    direction -1 3.90912e-006 8.31284e-007
    length 9.91437
    axis -23.2009 -0.134239 -0.964101 xyz
    dof rx ry rz
  end
  begin
    id 19
    name RightForeArm
    direction -1 3.90882e-006 8.31502e-007
    length 9.08575
    axis -9.92322 0.0658061 0.178867 xyz
    dof rx ry rz
  end
  begin
    id 20
    name RightHand
    direction -0.992843 -0.0414603 0.112003
    length 5.28593
    axis -0.00960638 0.00330671 -0.185228 xyz
    dof rx ry rz
  end
  begin
    id 21
    name LeftUpLegDummy
    direction 1 -2.30186e-007 -8.31532e-007
    length 4.46685
    axis 0 0 0 xyz
  end
  begin
    id 22
    name LeftUpLeg
    direction -2.30187e-007 -1 6.00931e-010
    length 16.4045
    axis -3.48766 0.00143442 -0.000524262 xyz
    dof rx ry rz
  end
  begin
    id 23
    name LeftLeg
    direction -2.30187e-007 -1 1.6669e-009
    length 17.5097
    axis 3.68178 -0.00654042 -0.000285133 xyz
    dof rx ry rz
  end
  begin
    id 24
    name LeftFoot
    direction 8.31532e-007 -4.54478e-011 1
    length 6.49508
    axis 1.87233e-006 4.66016e-005 -8.6538e-006 xyz
    dof rx ry rz
  end
  begin
    id 25
    name LeftToes
    direction 0.00818058 -0.00485161 0.999955
    length 3.85048
    axis 1.06247e-005 4.65869e-005 -8.65513e-006 xyz
    dof rx ry rz
  end
:hierarchy
  begin
    root RightUpLegDummy SpineDummy LeftUpLegDummy
    RightUpLegDummy RightUpLeg
    RightUpLeg RightLeg
    RightLeg RightFoot
    RightFoot RightToes
    SpineDummy Spine
    Spine Spine1
    Spine1 HEadDummy LeftShoulder1Dummy RightShoulderDummy
    HEadDummy HEad
    LeftShoulder1Dummy LeftShoulder1
    LeftShoulder1 LeftArm
    LeftArm LeftForeArm
    LeftForeArm LeftHand
    RightShoulderDummy RightShoulder
    RightShoulder RightArm
    RightArm RightForeArm
    RightForeArm RightHand
    LeftUpLegDummy LeftUpLeg
    LeftUpLeg LeftLeg
    LeftLeg LeftFoot
    LeftFoot LeftToes
  end

:SAMPLES-PER-SECOND 30
:FULLY-SPECIFIED
:DEGREES
96
root  -65.8238 30.5939 -12.2432 9.67198 26.7679 -1.28176
RightUpLeg  -34.3837 -4.95169 -3.90193
RightLeg  53.1631 2.24493 2.5675
RightFoot  -16.7736 -0.174435 -0.805606
RightToes  -33.8189 -0.171083 -0.277613
Spine  15.0604 -1.22426 4.26468
Spine1  27.6677 -1.83333 5.68534
HEad  15.606 18.4414 -14.2534
LeftShoulder1  0 -2.42657e-020 -4.95415e-022
LeftArm  -20.5588 -9.02083 -88.5035
LeftForeArm  37.5954 -33.9498 -6.80577
LeftHand  -0.160017 -9.973 1.46488
RightShoulder  0 2.42657e-020 1.07489e-018
RightArm  -51.8167 9.63276 66.9625
RightForeArm  27.3014 39.8011 8.45418
RightHand  -1.11897 21.7497 -5.45122
LeftUpLeg  -45.3267 0.830664 12.7101
LeftLeg  52.4485 0.994487 1.12638
LeftFoot  0.987408 0.00440493 -0.511199
LeftToes  -32.8289 1.71452e-006 7.46813e-008
97
root  -65.7451 31.1562 -12.6063 9.47897 26.9039 -1.96623
RightUpLeg  -32.6709 -4.49896 -3.61824
RightLeg  48.5012 2.21161 2.15429
RightFoot  -13.4979 -0.112643 -0.574325
RightToes  -37.4555 -0.198483 -0.300302
Spine  14.2615 -2.43166 3.40432
Spine1  26.5528 -4.3673 3.98857
HEad  15.7552 23.0614 -15.4771
LeftShoulder1  0 -2.42657e-020 -4.95415e-022
LeftArm  -22.4297 -5.52422 -85.8739
LeftForeArm  37.528 -35.4005 -7.18815
LeftHand  -0.190617 -9.6076 1.89931
RightShoulder  0 2.42657e-020 1.07489e-018
RightArm  -43.8403 7.6976 68.0368
RightForeArm  31.2624 44.4591 9.97706
RightHand  -1.58191 20.7341 -8.26384
LeftUpLeg  -41.1031 2.34997 14.2493
LeftLeg  52.1794 1.34059 1.50663
LeftFoot  0.32511 0.00130682 -0.460626
LeftToes  -29.7329 1.71452e-006 7.46813e-008
98
root  -65.5943 31.6245 -13.0614 9.61204 27.1608 -2.45918
RightUpLeg  -31.5785 -5.27089 -3.73093
RightLeg  44.479 3.20929 2.73493
RightFoot  -10.0616 -0.0848759 -0.586637
RightToes  -39.6549 -0.215732 -0.313165
Spine  13.722 -3.78736 2.62615
Spine1  25.881 -6.80041 1.63696
HEad  15.5794 28.1444 -16.852
LeftShoulder1  0 -2.42657e-020 -4.95415e-022
LeftArm  -25.5027 -1.83147 -83.4576
LeftForeArm  36.3326 -37.1351 -7.66569
LeftHand  -0.196053 -9.41001 2.01326
RightShoulder  0 2.42657e-020 1.07489e-018
RightArm  -36.6586 7.54494 70.8593
RightForeArm  31.5978 50.2007 12.2479
RightHand  -1.71103 21.0422 -8.82649
LeftUpLeg  -37.6875 3.45661 15.9828
LeftLeg  51.3358 1.04407 1.13757
LeftFoot  1.19653 0.00434694 -0.36975
LeftToes  -29.5364 1.71452e-006 7.46813e-008
99
root  -65.3939 32.0022 -13.6554 10.0612 26.4925 -3.09527
RightUpLeg  -31.9442 -8.29757 -3.76391
RightLeg  41.8155 7.33856 5.70238
RightFoot  -5.79996 -0.0570597 -0.748888
RightToes  -43.5897 -0.247775 -0.334489
Spine  13.6387 -4.63656 2.10069
Spine1  25.8593 -8.1327 -0.422969
HEad  13.9524 32.1419 -18.9136
LeftShoulder1  0 -2.42657e-020 -4.95415e-022
LeftArm  -28.6084 0.676767 -82.2986
LeftForeArm  34.6485 -38.1081 -7.94443
LeftHand  -0.246698 -8.87431 2.8106
RightShoulder  0 2.42657e-020 1.07489e-018
RightArm  -30.4486 9.11597 74.5624
RightForeArm  38.5169 54.8861 14.5666
RightHand  -2.41996 21.7887 -12.1586
LeftUpLeg  -34.8353 5.28302 17.9493
LeftLeg  49.5894 0.284068 0.285864
LeftFoot  3.6221 0.0107448 -0.339827
LeftToes  -31.2523 1.71452e-006 7.46813e-008
100
root  -65.2388 32.1937 -14.4871 11.8683 24.6627 -4.10139
RightUpLeg  -35.3248 -10.7576 -3.54632
RightLeg  41.1413 13.3839 10.0402
RightFoot  -1.56064 -0.00785034 -0.198917
RightToes  -53.3608 -0.333011 -0.377526
Spine  13.1175 -4.62654 1.89122
Spine1  24.7848 -8.09153 -1.08509
HEad  12.2887 34.3542 -20.6174
LeftShoulder1  0 -2.42657e-020 -4.95415e-022
LeftArm  -31.6814 1.72777 -83.136
LeftForeArm  35.1004 -37.0385 -7.63974
LeftHand  -0.24612 -8.55793 2.92094
RightShoulder  0 2.42657e-020 1.07489e-018
RightArm  -23.6435 10.2251 77.3815
RightForeArm  49.6253 58.8707 17.0261
RightHand  -3.62494 21.6931 -18.3913
LeftUpLeg  -33.746 7.7958 20.2001
LeftLeg  46.8345 -2.04715 -1.9248
LeftFoot  4.92213 0.0265994 -0.618881
LeftToes  -36.1896 1.71452e-006 7.46813e-008
101
root  -65.043 32.0782 -15.3585 13.8327 23.1978 -5.07118
RightUpLeg  -38.5915 -8.87798 -5.36392
RightLeg  41.975 19.2865 14.6069
RightFoot  -0.918159 -0.00326144 -0.0295084
RightToes  -62.6496 -0.419704 -0.404463
Spine  12.734 -4.15425 1.82246
Spine1  23.9141 -7.18258 -1.26164
HEad  10.2408 34.7731 -21.3625
LeftShoulder1  0 -2.42657e-020 -4.95415e-022
LeftArm  -34.47 1.69651 -84.6003
LeftForeArm  36.191 -36.4052 -7.46271
LeftHand  -0.191303 -8.9496 2.07575
RightShoulder  0 2.42657e-020 1.07489e-018
RightArm  -16.0272 11.4287 79.153
RightForeArm  62.5251 62.7009 20.022
RightHand  -4.88086 22.355 -23.9796
LeftUpLeg  -33.85 8.49568 22.4844
LeftLeg  44.5628 -5.81489 -5.01834
LeftFoot  3.92322 0.0323391 -0.944198
LeftToes  -43.269 1.71452e-006 7.46813e-008
102
root  -64.7478 31.5241 -16.2358 15.3473 23.4476 -5.432
RightUpLeg  -40.5024 -5.94103 -9.75432
RightLeg  43.1043 13.3575 10.7334
RightFoot  -3.59183 -0.0301344 -0.583616
RightToes  -58.2945 -0.378516 -0.393585
Spine  12.7457 -3.65203 1.8158
Spine1  23.7647 -6.19276 -1.19875
HEad  8.19268 33.3883 -20.9304
LeftShoulder1  0 -2.42657e-020 -4.95415e-022
LeftArm  -34.8085 0.837929 -85.9714
LeftForeArm  35.386 -37.0023 -7.62935
LeftHand  -0.22979 -9.1374 2.50701
RightShoulder  0 2.42657e-020 1.07489e-018
RightArm  -7.44492 13.5225 79.4279
RightForeArm  73.2323 65.021 22.2632
RightHand  -5.54705 22.0115 -27.6124
LeftUpLeg  -35.791 7.02134 24.2255
LeftLeg  44.685 -10.3462 -8.88048
LeftFoot  0.419273 0.00213118 -0.582479
LeftToes  -52.6306 1.71452e-006 7.46813e-008
103
root  -64.3562 30.528 -17.2492 17.404 25.1334 -4.09973
RightUpLeg  -42.2005 -6.20357 -15.7991
RightLeg  47.4236 5.55666 5.25705
RightFoot  -6.88058 -0.0351559 -0.207262
RightToes  -49.2666 -0.29641 -0.361268
Spine  12.7551 -3.03627 1.60595
Spine1  23.5021 -5.04552 -0.922624
HEad  6.97106 29.4989 -19.3246
LeftShoulder1  0 -2.42657e-020 -4.95415e-022
LeftArm  -33.3759 -1.06957 -87.7894
LeftForeArm  35.4357 -37.7474 -7.84009
LeftHand  -0.2957 -9.18346 3.31313
RightShoulder  0 2.42657e-020 1.07489e-018
RightArm  -0.211669 16.7696 78.2005
RightForeArm  78.9452 64.764 21.9556
RightHand  -6.06071 22.0869 -29.9906
LeftUpLeg  -40.5921 4.9822 23.7296
LeftLeg  48.03 -12.4319 -11.8904
LeftFoot  -5.49655 0.0539738 1.12433
LeftToes  -54.5569 1.71452e-006 7.46813e-008
104
root  -63.9848 29.1806 -18.3149 19.0813 26.894 -1.58104
RightUpLeg  -42.8203 -6.24756 -23.1626
RightLeg  53.6846 3.1519 3.69117
RightFoot  -8.85042 -0.00641306 0.294704
RightToes  -44.0825 -0.25189 -0.337003
Spine  13.3317 -1.66077 1.15632
Spine1  24.1483 -2.07189 -1.09735
HEad  6.74294 23.3396 -16.4841
LeftShoulder1  0 -2.42657e-020 -4.95415e-022
LeftArm  -30.8373 -4.46588 -90.1441
LeftForeArm  36.8656 -38.3734 -8.01924
LeftHand  -0.352792 -9.71561 3.78198
RightShoulder  0 2.42657e-020 1.07489e-018
RightArm  2.3532 21.1471 75.9321
RightForeArm  80.3802 60.1973 17.8683
RightHand  -6.34587 22.0655 -31.3815
LeftUpLeg  -46.6122 5.52777 20.062
LeftLeg  54.1823 -11.2912 -13.3697
LeftFoot  -11.8945 0.317959 3.05148
LeftToes  -52.6355 1.71452e-006 7.46813e-008
105
root  -63.7654 27.7193 -19.1444 20.256 28.2844 1.38796
RightUpLeg  -42.2082 -4.13141 -30.5164
RightLeg  59.3475 5.68972 8.17889
RightFoot  -8.56458 -0.0183692 0.132244
RightToes  -56.903 -0.365544 -0.389454
Spine  14.8682 0.511855 0.797048
Spine1  26.3764 2.98951 -1.70296
HEad  5.75785 15.9432 -14.3302
LeftShoulder1  0 -2.42657e-020 -4.95415e-022
LeftArm  -27.4922 -8.95366 -92.9993
LeftForeArm  37.1889 -39.0469 -8.21678
LeftHand  -0.416371 -10.1337 4.32639
RightShoulder  0 2.42657e-020 1.07489e-018
RightArm  0.199104 26.1505 71.8264
RightForeArm  75.7215 50.8359 12.425
RightHand  -6.53206 21.6855 -32.8204
LeftUpLeg  -52.6288 4.29818 17.3977
LeftLeg  62.1539 -9.75281 -15.4473
LeftFoot  -15.7361 0.592443 4.28509
LeftToes  -52.4022 1.71452e-006 7.46813e-008
106
root  -63.7303 26.3965 -19.794 22.3246 28.512 4.7171
RightUpLeg  -42.8968 -0.575211 -36.8794
RightLeg  62.4744 4.82018 7.79832
RightFoot  -14.6242 -0.0747396 -0.204915
RightToes  -62.9586 -0.422656 -0.405115
Spine  16.5923 3.09443 0.404309
Spine1  28.7976 9.24216 -2.88006
HEad  4.40033 8.69258 -12.6399
LeftShoulder1  0 -2.42657e-020 -4.95415e-022
LeftArm  -24.328 -13.1956 -95.7483
LeftForeArm  37.0237 -39.3876 -8.31854
LeftHand  -0.520035 -10.2462 5.42924
RightShoulder  0 2.42657e-020 1.07489e-018
RightArm  -7.72197 30.0833 67.798
RightForeArm  72.0965 39.8453 8.38122
RightHand  -6.49951 21.8365 -32.4422
LeftUpLeg  -58.4276 3.96879 14.6212
LeftLeg  69.1555 -8.16106 -17.2962
LeftFoot  -17.545 0.761739 4.93323
LeftToes  -53.3148 1.71452e-006 7.46813e-008
107
root  -63.8704 25.3388 -20.235 23.7386 29.1793 7.3301
RightUpLeg  -43.2977 2.81726 -41.34
RightLeg  64.2654 3.27613 5.67403
RightFoot  -20.6745 -0.060404 0.0463935
RightToes  -62.517 -0.418438 -0.408637
Spine  18.0041 4.78554 0.718488
Spine1  30.9805 13.7183 -3.20057
HEad  4.08316 3.93678 -12.9061
LeftShoulder1  0 -2.42657e-020 -4.95415e-022
LeftArm  -22.582 -15.5636 -97.5877
LeftForeArm  36.7257 -39.5565 -8.36959
LeftHand  -0.566115 -10.0607 6.059
RightShoulder  0 2.42657e-020 1.07489e-018
RightArm  -21.385 34.4286 64.2595
RightForeArm  72.3108 27.5044 5.18307
RightHand  -5.42254 21.9632 -27.0666
LeftUpLeg  -62.3153 4.9346 12.4372
LeftLeg  73.5395 -7.85825 -20.461
LeftFoot  -18.4552 0.97658 6.00586
LeftToes  -54.8783 1.71452e-006 7.46813e-008
108
root  -64.2098 24.6432 -20.4822 24.404 30.9955 9.43562
RightUpLeg  -42.5132 4.68785 -43.6418
RightLeg  66.2493 2.18884 4.07778
RightFoot  -25.567 0.00132272 0.383389
RightToes  -60.4054 -0.398376 -0.406971
Spine  18.7144 5.08545 1.59512
Spine1  32.2958 14.9303 -2.24576
HEad  4.57791 1.38491 -13.4729
LeftShoulder1  0 -2.42657e-020 -4.95415e-022
LeftArm  -22.3626 -16.1775 -97.2934
LeftForeArm  37.0359 -39.1141 -8.2369
LeftHand  -0.576372 -10.16 6.111
RightShoulder  0 2.42657e-020 1.07489e-018
RightArm  -45.569 36.3524 60.7292
RightForeArm  65.9958 17.4895 3.12132
RightHand  -3.65279 17.679 -22.8132
LeftUpLeg  -64.9093 4.40984 11.4736
LeftLeg  75.919 -7.66737 -22.631
LeftFoot  -17.9411 0.992461 6.28091
LeftToes  -56.1578 1.71452e-006 7.46813e-008
109
root  -64.746 24.4821 -20.6032 24.5755 32.144 10.58
RightUpLeg  -42.3812 5.37032 -44.4822
RightLeg  67.4113 2.61602 5.14296
RightFoot  -27.6391 -0.198349 -0.428796
RightToes  -59.587 -0.390652 -0.402616
Spine  18.3962 4.56836 2.31805
Spine1  32.1648 13.6812 -0.885799
HEad  4.47823 1.11483 -13.6648
LeftShoulder1  0 -2.42657e-020 -4.95415e-022
LeftArm  -24.4784 -14.7435 -95.1597
LeftForeArm  37.7694 -38.9599 -8.19036
LeftHand  -0.514871 -9.74717 5.66693
RightShoulder  0 2.42657e-020 1.07489e-018
RightArm  -66.5195 33.7839 59.1957
RightForeArm  41.3419 17.1958 3.1118
RightHand  -2.35214 17.4726 -14.8539
LeftUpLeg  -65.4287 4.11575 11.4377
LeftLeg  75.3833 -8.35108 -23.73
LeftFoot  -16.3523 0.852061 5.92519
LeftToes  -58.4261 1.71452e-006 7.46813e-008
